<svg width="258" height="87" viewBox="0 0 258 87" fill="none" xmlns="http://www.w3.org/2000/svg">
<g clip-path="url(#clip0_32_306)">
<path d="M171.975 53.2798C170.177 53.2798 168.716 51.8497 168.716 50.0902C168.716 48.3306 170.177 46.9005 171.975 46.9005C173.773 46.9005 175.235 48.3306 175.235 50.0902C175.235 51.8497 173.773 53.2798 171.975 53.2798ZM171.975 47.8566C170.715 47.8566 169.693 48.8609 169.693 50.0902C169.693 51.3194 170.719 52.3237 171.975 52.3237C173.232 52.3237 174.258 51.3194 174.258 50.0902C174.258 48.8609 173.232 47.8566 171.975 47.8566Z" fill="#C94780"/>
<path d="M171.955 47.2701H170.982L171.064 36.2269L172.025 35.6805L171.955 47.2701Z" fill="#C94780"/>
<path d="M160.604 21.5039C159.537 20.8491 158.125 21.1665 157.456 22.211C156.787 23.2554 157.111 24.6373 158.178 25.2921C159.246 25.9469 160.658 25.6296 161.327 24.5851C161.996 23.5407 161.672 22.1587 160.604 21.5039Z" fill="#C94780"/>
<path d="M175.317 33.8286L161.429 25.8787C160.379 26.7062 158.864 26.8388 157.657 26.0956C156.134 25.1596 155.674 23.1912 156.627 21.7008C157.583 20.2104 159.595 19.7605 161.117 20.6925C162.706 21.6687 162.948 23.6411 162.16 25.1033L176.269 33.2903L180.337 30.9965L126.315 0L72.5396 30.8359L88.2125 40.1678L88.2946 64.8372L126.237 86.996L164.5 64.8372V39.9227L171.06 36.2269L127.658 11.3887L128.717 10.7861L171.713 35.4837L172.02 35.6806L175.313 33.8327L175.317 33.8286ZM159.192 30.9965L126.27 49.9857L120.798 46.5792L120.716 39.9267L136.307 30.8359L125.95 25.0913L109.998 34.0014V52.5607L126.163 61.7882L153.552 46.1734L153.634 58.7512L126.434 74.5749L99.2344 59.2373V34.4513L93.43 30.8359L126.434 12.0917L159.188 31.0006L159.192 30.9965Z" fill="#C94780"/>
<path d="M12.2822 47.1898V38.9586H15.8987C16.8101 38.9586 17.5284 39.1393 18.0498 39.5009C18.5711 39.8624 18.8297 40.3887 18.8297 41.0756C18.8297 41.7625 18.5834 42.2647 18.0867 42.6222C17.59 42.9797 16.9373 43.1565 16.1286 43.1565L16.3462 42.803C17.2821 42.803 18.0046 42.9838 18.5013 43.3493C18.998 43.7149 19.2525 44.2452 19.2525 44.9441C19.2525 45.6431 18.9898 46.2015 18.4644 46.5952C17.9389 46.9929 17.159 47.1898 16.1286 47.1898H12.2822ZM13.4727 42.578H15.8166C16.3996 42.578 16.847 42.4656 17.1549 42.2366C17.4628 42.0076 17.6187 41.6742 17.6187 41.2363C17.6187 40.7984 17.4628 40.4529 17.1549 40.224C16.847 39.995 16.3996 39.8825 15.8166 39.8825H13.4727V42.574V42.578ZM13.4727 46.2578H16.104C16.7444 46.2578 17.2288 46.1413 17.5531 45.9123C17.8774 45.6793 18.0416 45.3258 18.0416 44.8477C18.0416 44.3697 17.8774 44.0202 17.5531 43.7993C17.2288 43.5783 16.7444 43.4698 16.104 43.4698H13.4727V46.2578Z" fill="#C94780"/>
<path d="M22.401 46.1694H27.3024V47.1938H21.1982V38.9626H27.1341V39.987H22.401V46.1734V46.1694ZM22.2943 42.5138H26.621V43.514H22.2943V42.5138Z" fill="#C94780"/>
<path d="M28.7309 47.2862C28.6118 47.2862 28.4887 47.2781 28.3696 47.2621C28.2506 47.246 28.1192 47.2219 27.9714 47.1898L28.0576 46.1413C28.1849 46.1734 28.3122 46.1895 28.4435 46.1895C28.7965 46.1895 29.0757 46.0529 29.285 45.7797C29.4944 45.5066 29.6463 45.0888 29.7489 44.5344C29.8474 43.976 29.9131 43.277 29.9459 42.4294L30.0773 38.9586H36.0008V47.1898H34.8227V39.6736L35.1101 39.9789H30.8449L31.1077 39.6616L31.0133 42.3892C30.9886 43.2047 30.9311 43.9198 30.8449 44.5304C30.7587 45.141 30.6233 45.6512 30.4468 46.0609C30.2702 46.4707 30.0445 46.776 29.7694 46.9768C29.4944 47.1817 29.1455 47.2821 28.7309 47.2821V47.2862Z" fill="#C94780"/>
<path d="M38.5625 47.1898V38.9586H39.753V45.3097L44.7282 38.9586H45.8325V47.1898H44.6543V40.8506L39.6667 47.1898H38.5625Z" fill="#C94780"/>
<path d="M48.394 47.1898V38.9586H49.5722V47.1898H48.394ZM49.2109 43.5663V42.5299H51.9408V43.5663H49.2109ZM52.0844 43.2007L50.9802 43.036L53.9974 38.9546H55.2823L52.0844 43.2007ZM54.0549 47.1858L51.0007 43.1284L51.9736 42.5419L55.4218 47.1858H54.0507H54.0549Z" fill="#C94780"/>
<path d="M56.5999 47.1898V38.9586H57.7903V45.3097L62.7656 38.9586H63.8698V47.1898H62.6917V40.8506L57.7041 47.1898H56.5999Z" fill="#C94780"/>
<path d="M67.63 46.1694H72.5314V47.1938H66.4272V38.9626H72.3631V39.987H67.63V46.1734V46.1694ZM67.5233 42.5138H71.85V43.514H67.5233V42.5138Z" fill="#C94780"/>
<path d="M2.87351 63.7204V56.2043L3.17317 56.5096H0V55.4852H6.93336V56.5096H3.76019L4.04754 56.2043V63.7204H2.8694H2.87351Z" fill="#C94780"/>
<path d="M8.34131 63.7204V55.4893H11.6212C12.356 55.4893 12.9882 55.6017 13.5095 55.8307C14.0309 56.0597 14.429 56.3891 14.7123 56.8189C14.9914 57.2488 15.131 57.763 15.131 58.3575C15.131 58.9521 14.9914 59.4663 14.7123 59.8921C14.4331 60.3179 14.0309 60.6473 13.5095 60.8803C12.9882 61.1133 12.3601 61.2258 11.6212 61.2258H9.00222L9.54408 60.6714V63.7164H8.34131V63.7204ZM9.54408 60.7919L9.00222 60.2054H11.5843C12.3519 60.2054 12.9348 60.0447 13.333 59.7234C13.7312 59.402 13.9282 58.948 13.9282 58.3575C13.9282 57.767 13.7312 57.3131 13.333 56.9917C12.9348 56.6703 12.3519 56.5096 11.5843 56.5096H9.00222L9.54408 55.9231V60.7919Z" fill="#C94780"/>
<path d="M15.1516 63.7204L18.9611 55.4893H20.1515L23.9733 63.7204H22.713L19.3141 56.1481H19.7944L16.3913 63.7204H15.1516ZM16.7731 61.6637L17.0974 60.7236H21.8305L22.1794 61.6637H16.7731Z" fill="#C94780"/>
<path d="M24.2156 65.5161L24.2279 62.692H33.3862V65.5161H32.2696V63.7164H25.3486L25.3362 65.5161H24.2197H24.2156ZM30.956 63.1661V56.5096H27.2656L27.204 58.237C27.1794 58.8155 27.1424 59.3739 27.0891 59.9081C27.0357 60.4424 26.9618 60.9205 26.8674 61.3503C26.773 61.7761 26.6375 62.1296 26.4651 62.4028C26.2927 62.676 26.0751 62.8447 25.8083 62.909L24.5111 62.6961C24.8231 62.7202 25.0817 62.6157 25.287 62.3827C25.4922 62.1497 25.6523 61.8243 25.7673 61.4066C25.8822 60.9888 25.9684 60.4987 26.0259 59.9363C26.0834 59.3739 26.1203 58.7753 26.1449 58.1326L26.2311 55.4852H32.1424V63.1661H30.9519H30.956Z" fill="#C94780"/>
<path d="M34.9707 63.7204V55.4893H36.1612V61.8404L41.1364 55.4893H42.2407V63.7204H41.0625V57.3813L36.0749 63.7204H34.9707Z" fill="#C94780"/>
<path d="M44.7981 63.7204V55.4893H45.9885V62.7001H50.6765V55.4893H51.8669V63.7204H44.8022H44.7981ZM52.0434 65.5884V63.4111L52.3308 63.7164H50.6724V62.6921H53.16V65.5844H52.0434V65.5884Z" fill="#C94780"/>
<path d="M54.7034 63.7204V55.4893H55.8938V61.8404L60.8691 55.4893H61.9733V63.7204H60.7952V57.3813L55.8076 63.7204H54.7034Z" fill="#C94780"/>
<path d="M64.5308 63.7204V55.4893H65.7212V61.8404L70.6965 55.4893H71.8007V63.7204H70.6226V57.3813L65.635 63.7204H64.5308Z" fill="#C94780"/>
<path d="M177.579 47.1536H176.376V38.9224H177.579V47.1536ZM182.517 43.4859H177.46V42.4616H182.517V43.4859ZM182.41 38.9224H183.613V47.1536H182.41V38.9224Z" fill="#C94780"/>
<path d="M189.479 47.25C188.839 47.25 188.244 47.1456 187.694 46.9327C187.144 46.7198 186.671 46.4265 186.269 46.0449C185.867 45.6632 185.555 45.2213 185.333 44.7112C185.107 44.201 184.997 43.6466 184.997 43.04C184.997 42.4334 185.107 41.8791 185.333 41.3689C185.559 40.8587 185.871 40.4128 186.269 40.0352C186.671 39.6535 187.143 39.3603 187.685 39.1474C188.227 38.9345 188.827 38.83 189.475 38.83C190.124 38.83 190.707 38.9345 191.249 39.1434C191.79 39.3522 192.262 39.6455 192.665 40.0271C193.071 40.4088 193.383 40.8507 193.601 41.3608C193.822 41.871 193.929 42.4294 193.929 43.044C193.929 43.6587 193.818 44.217 193.601 44.7272C193.379 45.2374 193.067 45.6833 192.665 46.0609C192.258 46.4426 191.786 46.7358 191.249 46.9447C190.711 47.1536 190.116 47.2581 189.475 47.2581L189.479 47.25ZM189.479 46.2015C189.943 46.2015 190.374 46.1252 190.772 45.9645C191.171 45.8079 191.511 45.5869 191.807 45.3017C192.102 45.0165 192.328 44.679 192.492 44.2974C192.657 43.9117 192.739 43.494 192.739 43.04C192.739 42.5861 192.657 42.1643 192.492 41.7826C192.328 41.397 192.098 41.0636 191.807 40.7783C191.515 40.4931 191.171 40.2722 190.772 40.1155C190.374 39.9588 189.943 39.8785 189.479 39.8785C189.015 39.8785 188.572 39.9588 188.174 40.1155C187.776 40.2722 187.431 40.4931 187.135 40.7783C186.84 41.0636 186.61 41.401 186.446 41.7826C186.281 42.1683 186.199 42.5861 186.199 43.04C186.199 43.494 186.281 43.9158 186.446 44.2974C186.61 44.683 186.84 45.0165 187.135 45.3017C187.431 45.5869 187.78 45.8079 188.174 45.9645C188.572 46.1212 189.003 46.2015 189.479 46.2015Z" fill="#C94780"/>
<path d="M195.341 47.1536V38.9224H198.958C199.873 38.9224 200.587 39.1032 201.109 39.4647C201.63 39.8263 201.889 40.3525 201.889 41.0395C201.889 41.7264 201.638 42.2286 201.141 42.5861C200.645 42.9436 199.992 43.1204 199.183 43.1204L199.401 42.7669C200.337 42.7669 201.055 42.9476 201.556 43.3132C202.057 43.6788 202.307 44.209 202.307 44.908C202.307 45.607 202.045 46.1654 201.519 46.5591C200.994 46.9568 200.214 47.1536 199.183 47.1536H195.337H195.341ZM196.531 42.5419H198.875C199.458 42.5419 199.906 42.4294 200.214 42.2004C200.522 41.9715 200.678 41.638 200.678 41.2002C200.678 40.7623 200.522 40.4168 200.214 40.1878C199.906 39.9589 199.458 39.8464 198.875 39.8464H196.531V42.5379V42.5419ZM196.531 46.2216H199.163C199.803 46.2216 200.288 46.1051 200.612 45.8762C200.936 45.6432 201.1 45.2897 201.1 44.8116C201.1 44.3336 200.94 43.9841 200.612 43.7631C200.288 43.5422 199.803 43.4337 199.163 43.4337H196.531V46.2216Z" fill="#C94780"/>
<path d="M207.467 41.7907C208.461 41.7907 209.224 42.0076 209.762 42.4415C210.3 42.8753 210.567 43.5261 210.567 44.3898C210.567 45.2977 210.275 45.9886 209.696 46.4546C209.117 46.9206 208.301 47.1536 207.25 47.1536H203.777V38.9224H204.967V41.7907H207.467ZM207.205 46.2257C207.902 46.2257 208.436 46.073 208.81 45.7677C209.183 45.4624 209.368 45.0125 209.368 44.4139C209.368 43.8153 209.183 43.4056 208.814 43.1324C208.444 42.8593 207.906 42.7227 207.205 42.7227H204.967V46.2257H207.205ZM211.905 47.1536V38.9224H213.095V47.1536H211.905Z" fill="#C94780"/>
<path d="M216.371 46.1292H221.272V47.1536H215.168V38.9224H221.104V39.9468H216.371V46.1333V46.1292ZM216.264 42.4736H220.591V43.4739H216.264V42.4736Z" fill="#C94780"/>
<path d="M178.096 63.6803V56.1641L178.396 56.4694H175.222V55.4451H182.156V56.4694H178.983L179.27 56.1641V63.6803H178.092H178.096Z" fill="#C94780"/>
<path d="M184.286 62.6599H189.188V63.6843H183.083V55.4531H189.019V56.4775H184.286V62.664V62.6599ZM184.18 59.0043H188.506V60.0046H184.18V59.0043Z" fill="#C94780"/>
<path d="M189.537 55.4491H190.92L193.12 58.458L195.321 55.4491H196.729L193.88 59.402L196.954 63.6843H195.538L193.124 60.4023L190.719 63.6843H189.335L192.398 59.4502L189.537 55.4531V55.4491Z" fill="#C94780"/>
<path d="M198.851 63.6803H197.648V55.4491H198.851V63.6803ZM203.789 60.0126H198.732V58.9882H203.789V60.0126ZM203.683 55.4491H204.885V63.6803H203.683V55.4491Z" fill="#C94780"/>
<path d="M210.747 63.7767C210.107 63.7767 209.512 63.6722 208.962 63.4593C208.412 63.2464 207.939 62.9532 207.537 62.5715C207.135 62.1899 206.823 61.748 206.601 61.2378C206.375 60.7277 206.265 60.1733 206.265 59.5667C206.265 58.9601 206.375 58.4057 206.601 57.8955C206.827 57.3854 207.139 56.9395 207.537 56.5618C207.939 56.1802 208.412 55.887 208.953 55.674C209.495 55.4611 210.095 55.3567 210.743 55.3567C211.392 55.3567 211.975 55.4611 212.517 55.67C213.058 55.8789 213.531 56.1722 213.933 56.5538C214.339 56.9354 214.651 57.3773 214.869 57.8875C215.09 58.3977 215.197 58.9561 215.197 59.5707C215.197 60.1853 215.086 60.7437 214.869 61.2539C214.647 61.7641 214.335 62.21 213.933 62.5876C213.526 62.9692 213.054 63.2625 212.517 63.4714C211.979 63.6803 211.384 63.7847 210.743 63.7847L210.747 63.7767ZM210.747 62.7282C211.211 62.7282 211.642 62.6519 212.04 62.4912C212.439 62.3345 212.779 62.1136 213.075 61.8284C213.37 61.5431 213.596 61.2057 213.76 60.8241C213.925 60.4384 214.007 60.0206 214.007 59.5667C214.007 59.1127 213.925 58.6909 213.76 58.3093C213.596 57.9237 213.366 57.5902 213.075 57.305C212.783 57.0198 212.439 56.7989 212.04 56.6422C211.642 56.4855 211.211 56.4052 210.747 56.4052C210.283 56.4052 209.84 56.4855 209.442 56.6422C209.044 56.7989 208.699 57.0198 208.403 57.305C208.108 57.5902 207.878 57.9277 207.714 58.3093C207.55 58.695 207.467 59.1127 207.467 59.5667C207.467 60.0206 207.55 60.4424 207.714 60.8241C207.878 61.2097 208.108 61.5431 208.403 61.8284C208.699 62.1136 209.048 62.3345 209.442 62.4912C209.84 62.6479 210.271 62.7282 210.747 62.7282Z" fill="#C94780"/>
<path d="M215.977 63.7767C215.858 63.7767 215.735 63.7687 215.616 63.7526C215.497 63.7365 215.361 63.7124 215.218 63.6803L215.304 62.6318C215.431 62.6639 215.558 62.68 215.69 62.68C216.043 62.68 216.322 62.5434 216.531 62.2703C216.74 61.9971 216.892 61.5793 216.995 61.0249C217.094 60.4666 217.163 59.7676 217.192 58.9199L217.323 55.4491H223.247V63.6803H222.069V56.1642L222.356 56.4695H218.091L218.354 56.1521L218.259 58.8798C218.235 59.6953 218.177 60.4103 218.091 61.0209C218.005 61.6315 217.869 62.1417 217.693 62.5515C217.516 62.9612 217.291 63.2665 217.016 63.4674C216.74 63.6723 216.392 63.7727 215.977 63.7727V63.7767Z" fill="#C94780"/>
<path d="M229.109 63.7767C228.469 63.7767 227.873 63.6722 227.323 63.4593C226.773 63.2464 226.301 62.9532 225.899 62.5715C225.496 62.1899 225.185 61.748 224.963 61.2378C224.737 60.7277 224.626 60.1733 224.626 59.5667C224.626 58.9601 224.737 58.4057 224.963 57.8955C225.189 57.3854 225.501 56.9395 225.899 56.5618C226.301 56.1802 226.773 55.887 227.315 55.674C227.857 55.4611 228.456 55.3567 229.105 55.3567C229.753 55.3567 230.336 55.4611 230.878 55.67C231.42 55.8789 231.892 56.1722 232.294 56.5538C232.701 56.9354 233.013 57.3773 233.23 57.8875C233.452 58.3977 233.559 58.9561 233.559 59.5707C233.559 60.1853 233.448 60.7437 233.23 61.2539C233.009 61.7641 232.697 62.21 232.294 62.5876C231.888 62.9692 231.416 63.2625 230.878 63.4714C230.34 63.6803 229.745 63.7847 229.105 63.7847L229.109 63.7767ZM229.109 62.7282C229.573 62.7282 230.004 62.6519 230.402 62.4912C230.8 62.3345 231.141 62.1136 231.436 61.8284C231.732 61.5431 231.958 61.2057 232.122 60.8241C232.286 60.4384 232.368 60.0206 232.368 59.5667C232.368 59.1127 232.286 58.6909 232.122 58.3093C231.958 57.9237 231.728 57.5902 231.436 57.305C231.145 57.0198 230.8 56.7989 230.402 56.6422C230.004 56.4855 229.573 56.4052 229.109 56.4052C228.645 56.4052 228.202 56.4855 227.803 56.6422C227.405 56.7989 227.06 57.0198 226.765 57.305C226.469 57.5902 226.239 57.9277 226.075 58.3093C225.911 58.695 225.829 59.1127 225.829 59.5667C225.829 60.0206 225.911 60.4424 226.075 60.8241C226.239 61.2097 226.469 61.5431 226.765 61.8284C227.06 62.1136 227.409 62.3345 227.803 62.4912C228.202 62.6479 228.633 62.7282 229.109 62.7282Z" fill="#C94780"/>
<path d="M234.975 63.6803V55.4491H240.492L240.48 56.4735H235.866L236.153 56.1802L236.166 63.6843H234.975V63.6803Z" fill="#C94780"/>
<path d="M241.379 63.6803V55.4491H242.569V61.8003L247.545 55.4491H248.649V63.6803H247.471V57.3412L242.483 63.6803H241.379Z" fill="#C94780"/>
<path d="M250.73 63.6803V55.4491H251.92V61.8003L256.896 55.4491H258V63.6803H256.822V57.3412L251.834 63.6803H250.73Z" fill="#C94780"/>
</g>
<defs>
<clipPath id="clip0_32_306">
<rect width="258" height="87" fill="white"/>
</clipPath>
</defs>
</svg>
