<svg width="185" height="140" viewBox="0 0 185 140" fill="none" xmlns="http://www.w3.org/2000/svg">
<path d="M183 8.79795C181.701 15.6765 180.404 27.0489 179.105 33.9298C167.555 37.0089 153.397 36.8995 142.577 31.0576V91.5667C142.577 92.7246 142.477 93.8801 142.245 95.0143C142.245 95.0214 142.243 95.0262 142.241 95.0333C137.332 119.331 107.968 138 72.4815 138C33.5553 138 2 115.538 2 87.8266C2 60.115 33.5553 37.6532 72.4815 37.6532C92.1508 37.6532 109.939 43.3881 122.724 52.642C122.693 46.5457 122.545 40.1545 122.674 28.0617C122.893 7.43079 122.81 2.97268 122.736 2.18092C125.039 1.50091 136.977 2.53519 147.211 8.79795C158.449 15.6718 172.942 12.3835 183 8.79795Z" fill="#C94780" stroke="#FCF648" stroke-width="4" stroke-miterlimit="10" stroke-linecap="round" stroke-linejoin="round" stroke-dasharray="0.7 10"/>
</svg>
